<mxfile host="Electron" modified="2023-05-07T16:22:30.420Z" agent="Mozilla/5.0 (Windows NT 10.0; Win64; x64) AppleWebKit/537.36 (KHTML, like Gecko) draw.io/21.2.1 Chrome/112.0.5615.87 Electron/24.1.2 Safari/537.36" etag="ZgnPzYE20yvDqWUx5ifu" version="21.2.1" type="device">
  <diagram name="Seite-1" id="a7c2ixBcZyH-n6YyRAaG">
    <mxGraphModel dx="1176" dy="679" grid="1" gridSize="10" guides="1" tooltips="1" connect="1" arrows="1" fold="1" page="1" pageScale="1" pageWidth="827" pageHeight="1169" math="0" shadow="0">
      <root>
        <mxCell id="0" />
        <mxCell id="1" parent="0" />
        <mxCell id="vGhUgApHrJOlLy3ZEJzC-1" value="Beastopia&amp;nbsp;- Main Menu" style="strokeWidth=1;shadow=0;dashed=0;align=center;html=1;shape=mxgraph.mockup.containers.window;align=left;verticalAlign=top;spacingLeft=8;strokeColor2=#008cff;strokeColor3=#c4c4c4;fontColor=#666666;mainText=;fontSize=17;labelBackgroundColor=none;whiteSpace=wrap;fillColor=#2C3333;" parent="1" vertex="1">
          <mxGeometry x="80" y="20" width="663" height="500" as="geometry" />
        </mxCell>
        <mxCell id="vGhUgApHrJOlLy3ZEJzC-2" value="&lt;p style=&quot;line-height: 20%;&quot;&gt;&lt;br&gt;&lt;/p&gt;" style="strokeWidth=1;shadow=1;dashed=0;align=center;html=1;shape=mxgraph.mockup.text.textBox;fontColor=#666666;align=left;fontSize=17;spacingLeft=4;spacingTop=-3;whiteSpace=wrap;strokeColor=#162326;mainText=;fillColor=#395B64;gradientColor=#3D4241;" parent="1" vertex="1">
          <mxGeometry x="481" y="100" width="210" height="350.5" as="geometry" />
        </mxCell>
        <mxCell id="vGhUgApHrJOlLy3ZEJzC-3" value="" style="rounded=1;whiteSpace=wrap;html=1;strokeColor=#162326;fillColor=#395B64;shadow=1;" parent="1" vertex="1">
          <mxGeometry x="531" y="393.88" width="109" height="40.25" as="geometry" />
        </mxCell>
        <mxCell id="vGhUgApHrJOlLy3ZEJzC-4" value="" style="verticalLabelPosition=bottom;shadow=0;dashed=0;align=center;html=1;verticalAlign=top;strokeWidth=1;shape=mxgraph.mockup.navigation.scrollBar;strokeColor=#262928;barPos=100;fillColor2=#395B64;strokeColor2=none;direction=north;fillColor=#808A86;" parent="1" vertex="1">
          <mxGeometry x="667" y="167.38" width="11" height="214.12" as="geometry" />
        </mxCell>
        <mxCell id="vGhUgApHrJOlLy3ZEJzC-5" value="&lt;font style=&quot;font-size: 14px;&quot;&gt;Search User...&lt;/font&gt;" style="strokeWidth=1;shadow=0;dashed=0;align=center;html=1;shape=mxgraph.mockup.forms.searchBox;strokeColor=#262928;mainText=;strokeColor2=#008cff;fontColor=#C7C7C7;fontSize=17;align=left;spacingLeft=3;whiteSpace=wrap;fontFamily=Happy Monkey;fontSource=https%3A%2F%2Ffonts.googleapis.com%2Fcss%3Ffamily%3DHappy%2BMonkey;fillColor=#808A86;" parent="1" vertex="1">
          <mxGeometry x="488" y="135" width="199" height="26.25" as="geometry" />
        </mxCell>
        <mxCell id="vGhUgApHrJOlLy3ZEJzC-6" value="" style="rounded=1;whiteSpace=wrap;html=1;arcSize=7;strokeColor=#162326;fillColor=#395B64;gradientColor=#3D4241;shadow=1;gradientDirection=south;" parent="1" vertex="1">
          <mxGeometry x="132" y="100.25" width="288" height="349.25" as="geometry" />
        </mxCell>
        <mxCell id="vGhUgApHrJOlLy3ZEJzC-7" value="" style="verticalLabelPosition=bottom;shadow=0;dashed=0;align=center;html=1;verticalAlign=top;strokeWidth=1;shape=mxgraph.mockup.containers.userMale;strokeColor=#162326;strokeColor2=#008cff;fillColor=#395B64;fillStyle=auto;" parent="1" vertex="1">
          <mxGeometry x="160" y="159.5" width="50" height="49.25" as="geometry" />
        </mxCell>
        <mxCell id="vGhUgApHrJOlLy3ZEJzC-8" value="&lt;p style=&quot;line-height: 120%;&quot;&gt;&lt;font style=&quot;font-size: 14px;&quot;&gt;MyUsername&lt;/font&gt;&lt;/p&gt;" style="text;html=1;strokeColor=none;fillColor=none;align=left;verticalAlign=middle;whiteSpace=wrap;rounded=0;fontFamily=Happy Monkey;fontSource=https%3A%2F%2Ffonts.googleapis.com%2Fcss%3Ffamily%3DHappy%2BMonkey;fontColor=#C7C7C7;fontStyle=0" parent="1" vertex="1">
          <mxGeometry x="226" y="159.5" width="114" height="12.5" as="geometry" />
        </mxCell>
        <mxCell id="vGhUgApHrJOlLy3ZEJzC-9" value="" style="html=1;verticalLabelPosition=bottom;align=center;labelBackgroundColor=#ffffff;verticalAlign=top;strokeWidth=2;strokeColor=#0080F0;shadow=0;dashed=0;shape=mxgraph.ios7.icons.edit;fillColor=none;" parent="1" vertex="1">
          <mxGeometry x="230" y="188.35000000000002" width="20" height="19.4" as="geometry" />
        </mxCell>
        <mxCell id="vGhUgApHrJOlLy3ZEJzC-10" value="" style="rounded=0;whiteSpace=wrap;html=1;fillColor=#677878;strokeColor=#162326;gradientColor=none;" parent="1" vertex="1">
          <mxGeometry x="160" y="289.5" width="240" height="140" as="geometry" />
        </mxCell>
        <mxCell id="vGhUgApHrJOlLy3ZEJzC-11" value="" style="rounded=1;whiteSpace=wrap;html=1;strokeColor=#162326;fillColor=#395B64;shadow=1;" parent="1" vertex="1">
          <mxGeometry x="187" y="301.5" width="170" height="30.25" as="geometry" />
        </mxCell>
        <mxCell id="vGhUgApHrJOlLy3ZEJzC-12" value="" style="rounded=1;whiteSpace=wrap;html=1;strokeColor=#162326;fillColor=#395B64;shadow=1;" parent="1" vertex="1">
          <mxGeometry x="187" y="343.5" width="170" height="30.25" as="geometry" />
        </mxCell>
        <mxCell id="vGhUgApHrJOlLy3ZEJzC-13" value="Example region" style="text;html=1;strokeColor=none;fillColor=none;align=center;verticalAlign=middle;whiteSpace=wrap;rounded=0;fontFamily=Happy Monkey;fontSource=https%3A%2F%2Ffonts.googleapis.com%2Fcss%3Ffamily%3DHappy%2BMonkey;fontColor=#C7C7C7;fontStyle=0" parent="1" vertex="1">
          <mxGeometry x="217" y="301.5" width="110" height="30" as="geometry" />
        </mxCell>
        <mxCell id="vGhUgApHrJOlLy3ZEJzC-14" value="Example region" style="text;html=1;strokeColor=none;fillColor=none;align=center;verticalAlign=middle;whiteSpace=wrap;rounded=0;fontFamily=Happy Monkey;fontSource=https%3A%2F%2Ffonts.googleapis.com%2Fcss%3Ffamily%3DHappy%2BMonkey;fontColor=#C7C7C7;fontStyle=0" parent="1" vertex="1">
          <mxGeometry x="217" y="343.5" width="110" height="30" as="geometry" />
        </mxCell>
        <mxCell id="vGhUgApHrJOlLy3ZEJzC-15" value="Choose a region" style="text;html=1;strokeColor=none;fillColor=none;align=center;verticalAlign=middle;whiteSpace=wrap;rounded=0;fontSize=16;fontFamily=Happy Monkey;fontSource=https%3A%2F%2Ffonts.googleapis.com%2Fcss%3Ffamily%3DHappy%2BMonkey;fontColor=#C7C7C7;fontStyle=0" parent="1" vertex="1">
          <mxGeometry x="210" y="249.5" width="144" height="30" as="geometry" />
        </mxCell>
        <mxCell id="vGhUgApHrJOlLy3ZEJzC-17" value="Friend List" style="text;html=1;strokeColor=none;fillColor=none;align=center;verticalAlign=middle;whiteSpace=wrap;rounded=0;fontSize=16;fontFamily=Happy Monkey;fontSource=https%3A%2F%2Ffonts.googleapis.com%2Fcss%3Ffamily%3DHappy%2BMonkey;fontColor=#C7C7C7;fontStyle=0" parent="1" vertex="1">
          <mxGeometry x="513.5" y="99.75" width="144" height="30" as="geometry" />
        </mxCell>
        <mxCell id="vGhUgApHrJOlLy3ZEJzC-18" value="Show Chats" style="text;html=1;strokeColor=none;fillColor=none;align=center;verticalAlign=middle;whiteSpace=wrap;rounded=0;fontSize=16;fontFamily=Happy Monkey;fontSource=https%3A%2F%2Ffonts.googleapis.com%2Fcss%3Ffamily%3DHappy%2BMonkey;fontColor=#C7C7C7;fontStyle=0" parent="1" vertex="1">
          <mxGeometry x="536.5" y="399.01" width="98" height="30" as="geometry" />
        </mxCell>
        <mxCell id="vGhUgApHrJOlLy3ZEJzC-19" value="" style="verticalLabelPosition=bottom;shadow=0;dashed=0;align=center;html=1;verticalAlign=top;strokeWidth=1;shape=mxgraph.mockup.graphics.simpleIcon;strokeColor=#162326;fillColor=none;" parent="1" vertex="1">
          <mxGeometry x="160" y="110" width="240" height="40" as="geometry" />
        </mxCell>
        <mxCell id="vGhUgApHrJOlLy3ZEJzC-20" value="" style="shape=image;verticalLabelPosition=bottom;labelBackgroundColor=default;verticalAlign=top;aspect=fixed;imageAspect=0;image=data:image/png,iVBORw0KGgoAAAANSUhEUgAAA8IAAAA1CAYAAACKlFKRAAASqUlEQVR4nO3de1SV9Z7H8fdmA8qBjYZyU7BISiyUwRKpkN3N6xIt89jpuM40laU5NbNm+UdnVs2qptay1e2UlUVrXN7maJlmXjLNS0cQwmzCKyqDSQ15QMVUQEQue/7YbkTdd/azwfy81mKxfZ7f7/l+f8/2ny+/5/n9TDabzYaXGhsbiYiI8LZ5u5aWFgBCQ0N97utvTICamhri4+ODFlPjNC4maJxGxdQ4jYsJGqdRMTVO42KCxmlUTI3TuJigcRoVU+M0LiZonEbFbGtrw2azYTabXbYJ8fmqIiIiIiIiIlcxFcIiIiIiIiJyTVEhLCIiIiIiIr8Zra2teHoDWIWwiIiIiIiI/GaYTCZMJpPbNr6/JS0iIiIiIiLSTYWEeJ7vNb/00ksv+XLRtrY2t6tvueKYmvZUmQcyJsD58+cJDw8PWkyN07iYoHEaFVPjNC4maJxGxdQ4jYsJGqdRMTVO42KCxmlUTI3TuJigcRoR05sxhtbU1AAQGRnJmjVrWLZsmd8Xc9evM339/ZLAu78GBCKmxmlcTNA4jYqpcRoXEzROo2JqnMbFBI3TqJgap3ExQeM0KqbGaVxM0DiNiulpnJGRkVx33XWYHPsI19fXM2TIEAYOHEhjY6NPwURERERERES6s7q6OiIiIhg2bNjFd4SjoqIA6N27N5s3b+6y5ERERERERESMkJKSQlhY2JWrRvfr168r8hEREREREREJCm2fJCIiIiIiItcUFcIiIiIiIiJyTVEhLCIiIiIiIteUUM9NREREREREpLNOnz5NRUUFP/74IydPnqStrY3o6GhuuOEGBg0aRN++fYOaz7lz56isrKS8vJyamhrOnz9PZGQkSUlJ3HrrrSQmJgY1H5sNfqmHslr777Mt0MMM8b+DtBi46brAxVIhLCIiIiIiYpCamhqefPJJAIqLi6mtrXXaLioqimHDhrFw4UJSUlIMy+fs2bMUFRXx+OOPA1BVVeW0XWhoKGlpaSxdupQhQ4YYlg/A7uPwh3X2zwdPum53dzK8eMfFz52hQlhERERERCTA1q9fz3PPPUd0dDSNjY0ALFmyBIC0tDRiY2MJCQnh5MmTVFRU8Morr7Bz504yMjK45ZZbWLZsWUAL4vLycqZPnw7AkSNHSE1N5emnnwYgPT2dfv360aNHD+rr66msrOSNN96goKCAUaNGkZKSwrx588jMzAxYPgDfV8P9K+wzvrfF24/993j77wEWiAqDc61wtB72noDnt8MTG+HnOrAmwfwxcH20f7FNNpvN5vhHSkoKeXl5zJ07t7NjEhERERERuSbt2LGD6dOnY7FYmDNnDgBWq9Wrvrt37+bVV1+loKCA1NRUCgoKMJvNncrn008/ZenSpdTU1AD2Ij0mJsarvkeOHGHMmDEA9OzZk5UrV3LTTTd1Kp+9x+HRDfDjaRgcA59MsB/3pqg90QjjPrd/viEa/jQYJqZ6H9tR82qxLBERERERkQB59tlnyc7Oxmw2s2XLFqxWq9dFMEBGRgYvvPACaWlphIaGMn36dFpbW/3OJz8/n1mzZtHa2srnn39OSUmJ10Uw2AvH8vJyli9fTm1tLY8++ii7du3yO59vj9qL4NNNsP0P8O0f7QWwtzO7fSNg5zRYmQe/noPpX8OSMt/zUCEsIiIiIiISAM8//zzvv/8+hYWF7Nq1i4iICL+uk5GRwbZt25g3bx4LFy5kwoQJfl3ns88+Y+bMmYwfP55169bRr18/v64DkJiYyIIFC6itrSUvL4+jR4/6fI2KUzDxC2izwTcPQ3on1gZLssB/jYbcJPjHr+DLI771v6QQ7vCUtIiIiIiIiHipqKiITZs2UVRURE5OTkCuaTabWbFiBRs2bOChhx7yqe/hw4eZOnUq48aNa383uTPi4+PJyspizZo1NDQ0MHLkSJ9mqhtbIPcTMJtgxUT7O8CdEWKCG3rB8jz7+8ITPof/q/O+f6jjxe3Q0MCsm7V27VrWrVvnsV1+fn5A4l0LHPe0u9+z7p5nd89PRERERK5OVVVV5OTkMHz4cO68886AXTctLY0zZ86wY8cO7rvvPkpLS71asMpmszFixAj69+/Pxx9/HLB8evfuTV1dHdu2bWPo0KFMnDiRL7/80qu+LxVDdQOsmgSpvQOWEm022Px76J8PI/4KR2d60aetjZCIiIj2KXuTydTpRLwpggFmzJjBjBkzOh0vWNauXdtl+Xp7T7tad8+zu+cnIiIiIlend955h5iYmIAWnQ5ZWVlkZWWRlJREbm6uV7Owo0aNAqCkpISkpKSA5pOcnMypU6coKCjg8OHDVFZWeuzzv7/ChiP294En+bCwlTdCQ+yrSH/7xwvvHf/iZT/Hh7CwsIAm5GnW7WoqgqFriyjNYAaG7qOIiIiIBFpFRQWrVq1i69atZGRkGBKjurqab775hvT0dIqKisjNzXXZtqmpCbAvchXoIthh5MiRABw/fpyxY8dy8OBBt+0/2AWR4TAi0ZB0uLGX/XfqdTBmBdT/C7ib4w0JCem6xbIcRcnVVhCLiIiIiIg4TJ48mVOnThkaIyEhgYSEBOLj45k8ebLbtjt27GDbtm2sX7/e0JwAli9fzqFDh6itrXXZ5u8NsOYw/OVuY3P5pQ7WPwjJFig95rm9Vo0WERERERHxg+Mx5dzcXMNmgx0OHDjAsmXLqK2tpaqqymW7xYsXk5OTQ2xsrKH5NDQ0tH8uLi522e7PBVB52tBUAOh/YfGtjDj4pw2e2wdmhSwDuJopdvd4q699vGl/+eJfHft4mtV2FvfyBZsu7+tNH3/GcTUIxHd++X119l26O+bN9yEiIiIiAvaVmffu3cvq1asNj5WamsqBAwcA+wrVDz/88BVtWltbmT9/PgsWLDA8n8jISLKzs5kyZQovv/wyeXl5TtuV/N3+yPKwOMNTai+GD/3quW23nBF297i0s3OeFrJyds5Te8d5T+8G+xrXcT1XObvrczl/xt1d+TMOV/fPVXtn99Gf70NEREREBOC7774jOjo6KLHCwsIYPHgwVquVxYsXO23jz96+nREZGQlAeXm523Y5/SHMHIyMYOZQON8KJxrdt+uyGWFnM3Ydj7s7N2PGjEvOOYoZZ7N3zvq4i+HqvLN8/cnVXc6e+nhzDX+v1ZX8uY+u+vhbuAbi+xARERGRa8v27dsBGDBgQFDihYWFkZCQQF2d8w1zHQVpenp6UPIBuPfee1mxYgWtra2YzZdWu40tUP4r/Ed20NJp9+Mp6Bvh+rxhM8KOmTlXPwATJkxw2d9Z4eGsSFm7dq3L9u6Ou4ufn5/v06rX3ubqKTdfCrrOjLs76ex9dHcPfRXIa4mIiIjIb19zczNxcXFXFIBGCg8P59gx56tBOY4nJCQELR+HxsYrp2BPNQU9DRLsk9Qc8zAj3KWPRl/+qKqrWeKOLi9e8/Ly/C5YArElkrvY/pzzdiydGXd35Mu98vT/xJ/78lu6lyIiIiISHFFRUYSHhwc1Zl1dHc3NzU7POY4HM6fw8HDMZrPTnJovbHkcHry/E7THavaw3bJhj0Z7O6Pq7LHTQLyX6e4a+fn5l8S//NzVTO+0ioiIiIgEz5EjR4Ia76effiIqKsrpOcfxM2fOEBcXhNWpsBfmcXFxRERc+hxySxtEXajH684HJRUAzlyIFRXmvl2XvSPc8d3bQLyD6WsB2LEYdnWdq6EoDmThe/kK2Q5Xw30QEREREQm2cePGMXfuXOrq6rBYLEGLm5ycfMWxkydPkpSUBEBlZSWpqalByWXVqlUA9OzZ85LjoSEQHQ539oNVFfDEkKCkQ+VpiOkJSR6+jm65fZKvhZend0e9eUfXVVHcnYtAf8ftSiAeFRcRERERuRbU1NS0f96/fz/Z2cavCFVbW0tpaSnvvvvuFediYmJITU0lJyeH119/nfvvv9/wfByGDh3q9HjohRdxv68OWiq88b399+A+7tt1y0LYF968V+wNIx7PNlKgxt1Rdy76RURERES6k/j4eDIzM5k0aRJPPfUUe/bsMTxmcXExN998s8vzMTExgH1bp2Coqqpiz549FBYWumzzlhX+7W9w7CzE/S4oaZGV6LlNSEtLCy0tLbS1tRmfkZc8FaHu9or15lqe9t/1hb/7+HraGzfYj4p3NV/ulbNtsLy9loiIiIhIoMTHxwP2gtDVlkaBtHXrVuLi4hg5cqTT8xUVFSxYsACLxUJZWZnh+TzwwAM0NbleGrrpwoJVISZ44AvD02HXMftPvofJcJvNdnHV6GAXwh2LWUdh481jvd7sP+zpGo5HgDtTSHnzWLWztu7i+FPA+TLu7qiz9zEQ91BERERExB+nT59m0aJFpKenM3r0aENjlZaWsnTpUubPn++yTWpqKqmpqdhsNsaMGWNoPsePH6e+vp6RI0e63Le4hxmy+9k/f1dt/HZKfz0AGbEwINp9O5vNRmhoqP3p6EAXwv4WJO5WdO7Yxtv2EyZMuOLdV29iXB7H4fLCzJdcneXgzd647vq7iu1s3MHi6x8S/LmP7vp05dhFRERE5NrRq1cvwF5YlZSU8PPPPzNgwICAx2lsbMRqtXLzzTe7fTQa4ODBg2zevJnBgwdTUlJi2LvLb731FlVVVSxevNhtu/rzsPEhiPkAcj+BPY8akg4FVbCkDIoe8dzWZDJdnBEOCQn+lsL5+flOiz5f9991V2x23G/38iLWXT9nhZe3+XhzztV5Xx6J9mfc3VWg9lx2jF1EREREJFgKCwtJTExk+PDhNDQ0BPz699xzDw0NDcyZM8dj27S0NNLS0sjMzOSOO+7g22+/DXg+hYWFfPHFF2zfvp2srCy3baPC4cBJe4G69wSUHA14Omz9GayfwvXRMLC35/YmkwmTzWazOQ6kpKSQl5fH3LlzA5+dAMYsciVX0n0WERERkWCpqqoC4PrrrycrK4vVq1cHZB/f1tZWnnjiCRYtWsS8efN4+umnve4HcNttt1FRUcG6deu4++67O50PwNtvv83s2bMZMWIEJSUlPvW9bQn8cAw+uA9m/UNA0mHDEXhgNWTGwaYpF/cudsVR8wZ/GlikkwK52JmIiIiISGclJSXR0NDA119/zb59+5g6dSobN27s1DXLysp46qmnWLRoEe+9957XRTCA2Wymrq6OLVu2cMsttzBlyhTKy8s7lQ9AQUEBs2fPZubMmT4XwQD/8yd49Fb45y1Q/Eun06GsFqasgawEWPOA5yK4IxXCctVxt9iZs0XYRERERESMNmjQIFJSUli+fDlNTU3MmjWLnTt3+nWtQ4cO8cwzz7Bp0yZWr17NM8884/M1evfuTXh4OCtXrmT8+PGMGTOGu+66i+bmZp+vVVNTw6BBg7BarWRnZ/Phhx/6fA2HhWPh9gT417/ZZ4hPNPp+jXMt9kehMxZBsgU2ToFYH7dmuur3EZZrj7eLnYmIiIiIBNONN95IbGwsH330EdOmTeOxxx6jV69evPbaawDcfvvtREREOO1rs9nYv38/kyZN4syZMyQnJ1NcXExSUpLf+VgsFiwWCx988AHjx48H7AWy1WplyZIlAPTp08dl/8rKSh588EHOnj2LxWJh9+7dDB061O98HHZOg9Jj8O8FMOBjGBwDqybZz7lb8fn4WXjkS9j+C9zaBzb9Hu5O9i8HFcJyVepYDDs7JyIiIiLSFSwWCxkZGezbt4/y8nLGjRtHbm4uAMnJyQwfPpy77roLsC9Y/P3337fPHLe0tJCYmMiKFSvIzMwMaE6FhYXU1NQwduxYvvrqK/r27UtcXBzTpk0jMTERgPDwcMrKyigtLQWgubmZqKgo3nzzTaxWK44dhwJhcAy8eCe8XAwFv0DaAggLgUfSLp4H+17EX/984XMLnG22F8Ebp0Bf539T8IoWyxIRERERETHQ8ePHKSoqYs6cOVRUVHDq1Kn27WuHDBnSXvS++uqrJCf7OcXpg4aGBn744QdefPFFDh48yIkTJ9ofmR44cGD7rO+cOXMYNGiQ4fkAHKiFPxfCvhNwtB7OtdoLYwDrhUnx/7T//YA7+vkfx1HzqhAWEREREREJMsfKzmazuYszsWttbcVms2E2mzGZTF2dDm02+4/JBOYApuOoefVotIiIiIiISJB1lwLYobvlE2Ky//ijw1zvJToW+Fo1WkRERERERH4zXBXCHWlGWERERERERH4zTCaTx8e7L5kRjoyMNDQhERERERERESO5K4Kjo+37M4U2Ntp3MHYshd2jRw8aGhqMz05EREREREQkSBwFcltbG6GODZ2bm5uxWCykp6dTXV1NdXV1V+YoIiIiIiIiEjCxsbGMHj2apqami+8Ih4WFUV9fz6FDh5g0aRJ9+vTpyhxFREREREREAubYsWMUFBQwYsQI/h/26isiV5q0YgAAAABJRU5ErkJggg==;" parent="1" vertex="1">
          <mxGeometry x="77" y="16" width="667" height="36.75" as="geometry" />
        </mxCell>
        <mxCell id="vGhUgApHrJOlLy3ZEJzC-21" value="&lt;p style=&quot;line-height: 20%;&quot;&gt;&lt;br&gt;&lt;/p&gt;" style="strokeWidth=1;shadow=0;dashed=0;align=center;html=1;shape=mxgraph.mockup.text.textBox;fontColor=#666666;align=left;fontSize=17;spacingLeft=4;spacingTop=-3;whiteSpace=wrap;strokeColor=#162326;mainText=;fillColor=#677878;" parent="1" vertex="1">
          <mxGeometry x="488" y="167.38" width="179" height="215" as="geometry" />
        </mxCell>
        <mxCell id="vGhUgApHrJOlLy3ZEJzC-22" value="" style="rounded=1;whiteSpace=wrap;html=1;strokeColor=#262928;fillColor=#4C5250;" parent="1" vertex="1">
          <mxGeometry x="493.25" y="172" width="168.5" height="54" as="geometry" />
        </mxCell>
        <mxCell id="vGhUgApHrJOlLy3ZEJzC-23" value="&lt;p style=&quot;line-height: 120%;&quot;&gt;&lt;span style=&quot;font-size: 14px;&quot;&gt;Bob&lt;/span&gt;&lt;/p&gt;" style="text;html=1;strokeColor=none;fillColor=none;align=left;verticalAlign=middle;whiteSpace=wrap;rounded=0;fontFamily=Happy Monkey;fontSource=https%3A%2F%2Ffonts.googleapis.com%2Fcss%3Ffamily%3DHappy%2BMonkey;fontStyle=0;fontColor=#C7C7C7;" parent="1" vertex="1">
          <mxGeometry x="556" y="177.05" width="98" height="12.5" as="geometry" />
        </mxCell>
        <mxCell id="vGhUgApHrJOlLy3ZEJzC-24" value="" style="html=1;verticalLabelPosition=bottom;align=center;labelBackgroundColor=#ffffff;verticalAlign=top;strokeWidth=2;shadow=0;dashed=0;shape=mxgraph.ios7.icons.mail;fillColor=#fff2cc;strokeColor=#d6b656;" parent="1" vertex="1">
          <mxGeometry x="594" y="200.55" width="20" height="15" as="geometry" />
        </mxCell>
        <mxCell id="vGhUgApHrJOlLy3ZEJzC-25" value="" style="verticalLabelPosition=bottom;shadow=0;dashed=0;align=center;html=1;verticalAlign=top;strokeWidth=1;shape=mxgraph.mockup.containers.userMale;strokeColor=#666666;strokeColor2=#008cff;fillColor=#4C5250;" parent="1" vertex="1">
          <mxGeometry x="501" y="177.05" width="44" height="42" as="geometry" />
        </mxCell>
        <mxCell id="vGhUgApHrJOlLy3ZEJzC-26" value="" style="ellipse;whiteSpace=wrap;html=1;aspect=fixed;fillColor=#60a917;fontColor=#ffffff;strokeColor=#2D7600;" parent="1" vertex="1">
          <mxGeometry x="535" y="209.05" width="10" height="10" as="geometry" />
        </mxCell>
        <mxCell id="vGhUgApHrJOlLy3ZEJzC-27" value="" style="html=1;verticalLabelPosition=bottom;align=center;labelBackgroundColor=#ffffff;verticalAlign=top;strokeWidth=2;strokeColor=#B20000;shadow=0;dashed=0;shape=mxgraph.ios7.icons.delete;fillColor=#FF9999;fontColor=#ffffff;" parent="1" vertex="1">
          <mxGeometry x="559" y="198.05" width="20" height="20" as="geometry" />
        </mxCell>
        <mxCell id="vGhUgApHrJOlLy3ZEJzC-28" value="" style="sketch=0;pointerEvents=1;shadow=0;dashed=0;html=1;labelPosition=center;verticalLabelPosition=bottom;verticalAlign=top;outlineConnect=0;align=center;shape=mxgraph.office.concepts.pin;fillColor=#000000;" parent="1" vertex="1">
          <mxGeometry x="632" y="200.55" width="12.5" height="16" as="geometry" />
        </mxCell>
        <mxCell id="vGhUgApHrJOlLy3ZEJzC-29" value="" style="rounded=1;whiteSpace=wrap;html=1;strokeColor=#262928;fillColor=#4C5250;" parent="1" vertex="1">
          <mxGeometry x="493.25" y="227" width="168.5" height="54" as="geometry" />
        </mxCell>
        <mxCell id="vGhUgApHrJOlLy3ZEJzC-30" value="&lt;p style=&quot;line-height: 120%;&quot;&gt;&lt;span style=&quot;font-size: 14px;&quot;&gt;AnotherUser&lt;/span&gt;&lt;/p&gt;" style="text;html=1;strokeColor=none;fillColor=none;align=left;verticalAlign=middle;whiteSpace=wrap;rounded=0;fontFamily=Happy Monkey;fontSource=https%3A%2F%2Ffonts.googleapis.com%2Fcss%3Ffamily%3DHappy%2BMonkey;fontStyle=0;fontColor=#C7C7C7;" parent="1" vertex="1">
          <mxGeometry x="556" y="232.05" width="98" height="12.5" as="geometry" />
        </mxCell>
        <mxCell id="vGhUgApHrJOlLy3ZEJzC-31" value="" style="html=1;verticalLabelPosition=bottom;align=center;labelBackgroundColor=#ffffff;verticalAlign=top;strokeWidth=2;shadow=0;dashed=0;shape=mxgraph.ios7.icons.mail;fillColor=#fff2cc;strokeColor=#d6b656;" parent="1" vertex="1">
          <mxGeometry x="594" y="255.55" width="20" height="15" as="geometry" />
        </mxCell>
        <mxCell id="vGhUgApHrJOlLy3ZEJzC-32" value="" style="verticalLabelPosition=bottom;shadow=0;dashed=0;align=center;html=1;verticalAlign=top;strokeWidth=1;shape=mxgraph.mockup.containers.userMale;strokeColor=#666666;strokeColor2=#008cff;fillColor=#4C5250;" parent="1" vertex="1">
          <mxGeometry x="501" y="232.05" width="44" height="42" as="geometry" />
        </mxCell>
        <mxCell id="vGhUgApHrJOlLy3ZEJzC-33" value="" style="ellipse;whiteSpace=wrap;html=1;aspect=fixed;fillColor=#60a917;fontColor=#ffffff;strokeColor=#2D7600;" parent="1" vertex="1">
          <mxGeometry x="535" y="264.05" width="10" height="10" as="geometry" />
        </mxCell>
        <mxCell id="vGhUgApHrJOlLy3ZEJzC-34" value="" style="html=1;verticalLabelPosition=bottom;align=center;labelBackgroundColor=#ffffff;verticalAlign=top;strokeWidth=2;strokeColor=#B20000;shadow=0;dashed=0;shape=mxgraph.ios7.icons.delete;fillColor=#FF9999;fontColor=#ffffff;" parent="1" vertex="1">
          <mxGeometry x="559" y="253.05" width="20" height="20" as="geometry" />
        </mxCell>
        <mxCell id="vGhUgApHrJOlLy3ZEJzC-35" value="" style="sketch=0;pointerEvents=1;shadow=0;dashed=0;html=1;labelPosition=center;verticalLabelPosition=bottom;verticalAlign=top;outlineConnect=0;align=center;shape=mxgraph.office.concepts.pin;" parent="1" vertex="1">
          <mxGeometry x="632" y="256.5" width="12.5" height="16" as="geometry" />
        </mxCell>
        <mxCell id="vGhUgApHrJOlLy3ZEJzC-36" value="" style="shape=image;verticalLabelPosition=bottom;labelBackgroundColor=default;verticalAlign=top;aspect=fixed;imageAspect=0;image=data:image/png,iVBORw0KGgoAAAANSUhEUgAABIoAAAA2CAYAAACoVnLoAAAR2ElEQVR4nO3dUWgc137H8Z9yDVolEI1ScjVbuGhES6xNIZZeGjl5sASF2MkFKw20dkqDBQ1W6IUY8tC8xY9+cazADbHppVZbEruFW0kQkE0v2HmS7pMkyEWbkLCjvGicS7Mjg6+PEiXqw3jWsryrndmd2VnJ3w+YlbVnzv737Oph/vz/53T09fVtbW1t6ZtvvhEAAAAAAAAePYcOHZLv+zrQ0dGhu3fvamtrK+uYAAAAAAAAkIHx8XFNT0/rMUl67LHHso4HAAAAAAAAGVpfXw8SRblcLutYAAAAAAAAkDFKiQAAAAAAACCJRBEAAAAAAADuIVEEAAAAAAAASSSKAAAAAAAAcM+BrAMAAAAAAAB7i+/7KhaLOnfunIwxsm1btm1XDssaGxuTJA0ODmYZpiTJGCPP8+S6riYnJ+X7vhzHeSDeM2fOyLKsjCMNmE3JvS1dXA4e1zekviclqzN4fuQXwePYX6bz+h2O42xJUqlUSucVAAAAAADAnmaMkeu6Gh0dled5ld/ncjnlcjkZY2SMeeAax3EkSfPz87JtO5N4h4aGHogrTAztjFW6n9S6ceNGy5NGZlMa+o8gMWR+vP97qzN4bvvvQoeeDh4XXpdyCZQBjY+Pa2pqiooiAAAAAABQm+/7KhQKsixLlmVpYGBAkvTee+9JCpIvw8PDlbHFYlHvvvuuVldXJUmFQkHHjx+XJE1NTaUa68LCgs6dOydJ+uyzz3Tw4MFKwurMmTM1452YmJDrupKkfD4vy7K0uLiYeoLLbEoDl6WOez+/5EhOd/Dcqb8KHgd/fn+sdydIJp38VFr+Y/D7rg8k+3Hpyi/vVxs1g4oiAAAAAADwEM/zVCgUZIypJFbm5uYqVTlRGGM0MDCg1dXVSqtXWvmHmzdv6tSpU9rY2JAxRtPT05KkkZGRyHP4vq/R0VFJwfvf2tp6oIIqKWGCaPW2NHivMmjuNcl+It483h3p8CfBz1ZnY3OEwooiEkUAAAAAAOABS0tLOnHihG7duiVJWltbi5UgqmZoaEhSkIy5cOFCZR+jJHiep+HhYfX09EgK2t2aidf3/Uq8fX19mpycTGy/Jd9IJz6Vrq8GlUDzr9+vImpmzsOfBNVGvU9I7pvx5wgTRZx6BgAAAAAAKpaWljQ2NqZbt25pZWVF5XK56SSRJC0uLmpubk6+7+utt97SwsJCAtEG7Wz5fF4dHR26ceOGFhcXm47XsiyVSiXduHFDy8vLGh0drbSmNcNsShO/C5JEVqe0+EbzSaLQ3GvSUSeoUir8W+PzkCgCAAAAAACSgkqaY8eOaWNjQ3Nzc4nv0eO6rqanpystXr7vNzWf53kaHx+X4zhaWVlJfBNqx3HU3d2tQ4cOPbQxdiMm/lea/UoazktrE423ie1k5YKE0+Wj0omDUrEs9fy6sblIFAEAAAAAABljNDExoVwup5WVlcq+REkaHh6W4ziam5uTMabSKtYI3/crG0+XSqVEqp6qcV1XV69eVXd3t/L5fMPzDH8sXXeDY+3nEzqpbCcrF2xqPZyX/I1gD6O4SBQBAAAAAACdOXNG165dq5xulhbHceQ4jsrlsiQ1nCyybVudnZ2VTavTZNu21tfX5ft+Qy1ovrm3cfXPpfcOpxDg9tfakG78XdDalr8YvHYcKeSvpC+++ELvv/9+5PGXLl1KIwxUsf2z2evrvvN71sj7OX369AP/T2JNsl7jdl0XAAAAAO1rZGRErutqdHS0JYkXx3FkjJFt2/I8T57nxWpzKxQKyuVyKhaLqR9hHyqXy+ro6FB/f7/K5XLkZJrZlAqXgwqiK68EVT9psjqDSqKV8SBR1POhtPVO9OtTqSiKkySSgpvSnTeme127vqe4n0072/le4q53Wp9P1mvcrusCAAAAoH15niff93XlypWWvaYxRqVSSSMjI5UTxqJeZ9u2crlcy5JEUtDqdvfuXUlSf39/5Ovc20GSyOpMP0kUsp8IElSlfwr+H6cFra1az/bLDep+eR97UdS1f9Q+I9YFAAAAQC2e56mrq0uWZaW2z081YUVOb2+vHMeR53mRrjt58qSKxWJip6ZFZVlWZTPrOJtwvzoTtIMtvpFWZNWFp6kNPh1UFkWVSuvZdvVaVnbemJ4+fZo2lxSxtuljjQEAAADsJceOHZPneVpZWWn5axtjNDU1pRMnTqi/v79SsVNP3Fa1pPi+r1KppP7+/kgxmM2gusf7U4sC3MHqDB7tx4O9iqJUNGVeUXTp0iVurAEAAAAAyEBYGWOMSXUD61rCKibXddXb21t3fLif0fT0dEurn0KO40iSjh8/HukEtNH/lorf3W8BazV/Q5o+HiSrTl2Ldk3miSIgCduTjfXap7Y/v9+TlKwLAAAAgN24rivP83ThwoXMYigWizp79qwGBgbqtp+Nj4+rWCy2KLLqLMuqJIzqxVv8LqgmatXeRDuF7WedMfrJUm89S1q1m92oN7W1bpTjtsfVuq7aaW+73Xw38l6qnagVZ56oJ3I1ulb7TSPrsNsaN/v5tZO4cbfqu5v1qXMAAADAXjI5ORl5b6C0DAwMqFgs6vr165qYmNDMzEzNseGm22NjYy2M8EHbK69c1921/czfuN/+lRWrU3KeDJJWUeyZRNFu1RD19jWKWkkRJfGz23VxTruqFVOtWELbX+P8+fP68ssvY81TL8ZG12q/aWYddlvjZj+/dtDo32La39244wAAAABI6+vrkpRJ21nIGKNcLhcpBtd1M2k52xnD2NiYPvjgg8rm1tWYzeDRebJFgdVg5YLWs9mvgtPP7Cd2H59569nOY+Sr3WRGOYmpXuKlETtvOGvtp5TG8eNRxtS60W7UXj/xKm5Spdr48+fPt2wdkv78akliXULt+t0FAAAA0Jgw0ZFlhY4U7P2z/VSxWnzfz2QT6+3CtjNJmpqaqjkuPJK+rzvtiKIxP0ruev1xqVcUxbnpjpKE2a19a2c1Q71rd7t+t+RVrbaZKNc2835qSWKOZtaqHdWKr973cWcCoxXrkMTnF1Wj61JtTLt8dwEAAAA0LqzmyVIul5PjOPJ9XxsbGzXHhRtuZ1n9FId/760M9GQbhyT1Ph48mh/rj828oiiOajeNUW8ka41r5kY0rDBqdI5m3k+Sc0S9/lG7aW/FOqTx+bVCu353AQAAAMTT29ubeaJICpJFvu/v3spljGzbbpt46wlbz6LuDZSmL8rBYxjTbtoqUbSzYiHqKUy1qoiaTeTUiiuJeRp5P7uNa3SO7eOTWKusJZE4bNU6tHKtm12XVn53AQAAALSObdsyxsj3/UzjqNdyJqmyj1E7JIpCtVr2zGZQvZP1RtahsA0uitRbz+K2PbWq3aRe8uTSpUsPxbXz+UfFXt27qF4rYiPz7QdJrwsAAACAvSlMzuRyOXmel2lLV3jyWm9vb80xuVxOfX19Wl5eblVYNZ07d67uGPtxaeCpaFU8aQsTRUf7649ti1PPqiVlohwlH0cj1+92hHfUCou9KI3EQb0T5NpxDUmgVMe6AAAAAPuDMUZnz57V7Oxs5hVFYaLozJkzu46zbbsSb5aJrd///veSareg5Q5ITndwwphfv1iqJXI/izauLRJF0sPJoqTUSlDEqaioN3a/bLqbxFrVspeOLE9zHQAAAACgXViWJd/3dejQIZ08eVKlUimzWMbHx+uOCSugDh48qFOnTmlmZibtsGrGEW6sffTo0frjfwySRVZGHXO+CVrgnCejjW+bRFE9jSZitt/wJ5HMqZUs2A/JoqTXKivbk47h5xKnAmy/rMNOza5L3HEAAAAA2l944tjy8nKmVTq2bcvzPI2MjNQcY4zRuXPnNDExkWkF1NramizLkm3bu44zP0pXXpGO/Vbq/41U/lWLAtxh8D+Dx6V/jDZ+zySKGpF2e1haVVBZaMVa7QX7uaUQAAAAAHYKW6e6u7szq9I5duyYisWiFhcXdx1nWValqsj3fXmeVzdZk4YXXnhBxpi6FVhWZ1DNU/wuettX0symtHo7iCVqRVPbnHpWLeESp9Xn9OnTlX/Nvq4UtB81Mt9uor6fqMmKJOaIY78kxZr1KK5DK/4Wk/AofjYAAABAsyYnJzU4OJjZ63ueFznpY4zRxYsXZVmW+vsj7MycMN/3I53QVhm/Ia2MS96fJOdfUwysBvd28DjwVPRr2iJRFPVEsVo3gVGSIvU2pN5pe/tRlNdtRNyY0pqjFXO2Wq3ERpyk2X5Yh52SWJed19b6fZoVWfvxswEAAACyNjs7q3w+39LX7OnpkSStrKxEOvY+bI1zXVe9vb2VTbBbwRijfD4fqZoo5HTf/3n1dmtPQPONVLgcVDPNvx79utRbz5q9eat3TH1ascR93SgJqkuXLsWaN+qNdhJzxJnzUcI63Jfk32Jar7+f2kEBAACAVpqamtLs7Gys6p5meZ5XaSFzHCfydcYYLSwsKJ/PK5/Pq1wut2RvpTApZVlWrNfzN6TyP0s9H0pjs9K119KK8EGnrgePpTfjXdcWFUXbVUtsNLrJbpTrnnnmmVixNDMuzvgkxsSJq9m12i9Yh92x4TUAAACwf5XLZUlSPp9XsVhM9bVc11U+n1cul9P09HSkaqKQZVnyPE+lUkmWZenw4cMpRhpYWlpSoVCQbdtaW1uLda3THewPZD8uXXelE5+mFOQ9ZlM6dU2a/Urqe1Kyn4h3fdskisJqm0aer/fcbnO+8847u+6/0kgyJmqSp9a1SSR4GrlRb3at2k0jicN64/biOuzU6LpsH9/I32ISkvq7AQAAAPAw13UryaKhoaHUThYzxqhQKEiSSqWShoeHY8/hOI4sy1Jvb6+KxaJ6enq0tLSUdKiSgnhHR0dl27amp6cbnmftLel5W/qvL6ThjxMMcBvvTlC19O9/kI7/hXTz7+PP0eE4zpakyP11yBancgEAAAAA0uQ4jhzHkeu6klR5TGru1dVVHTlyRJJ08+bNpuccGxvT0tKSVldXNT8/31DiqRpjjPr7++X7vizL0vz8fKwWuVoOfxxsMp07IM39rTTwZwkEqyBJdOy3wSlrL/VLF/8mXjXR+Pi4pqam2qeiCAAAAAAAZM91Xc3MzGhgYECrq6uJbXA9ODiojY0N9fX16erVq4kkiSRpZmZGjuPoyJEjOnz4cGIbXL/66qsyxiiXy6lUKiWSJJKk+X8IEjhWp3Tsf4JNp5tlNoMkUZiAuvpK/JazEIkiAAAAAADwkIsXL+r48ePyPE8dHR2VE7/iCNvMurq61NHRIdu2tbCwkPhm2Tdv3tS1a9c0PDys0dFRjY2NaWxsLPY8nucpn8+rq6tLkrS4uKhyuRxrD6UoFt+Q5u5tat3/G6nn10FFUBxmM6ge6pq8f/3KuFT+VZAsalTqp54BAAAAAIC9JTzZa2pqSoODg1pdXZXneerq6pJt2/roo48kqWoyxhgjz/M0Ojoq6X7r2uXLlzUwMJB40iXk+76mp6c1NDSk2dlZSVJHR4f6+vo0NTUlSRoZGakar+u6GhkZUU9Pj3p7e/X8889LUmJVRNW469Llo9L4teD/hcvSoaeDn2eOBxtgPxTrZpAQcm9LrwZvsZIUWnyj8Sqi7UgUAQAAAACAqizLqiR6fN/X0NCQpKAtazcvvfRS5Qj5tbW1xCuIqglfIzyVzPM8FQoFra+vV5JWtfT19VU22J6bm0stmbXd8J8Hj6U3gwTQ8CfS8h+D3/V8uPu1VqeU+5l05ZfB/0d+kVxcJIoAAAAAAEBdlmWpVCrJ931NTk5qaWlJ6+vrKhaLyuVychxHfX19lQTR1atXKz9nwbZtlctleZ6nixcvVo03jO/tt9+WVL3iqBVyB6SlN4KfvTvSxO+k9Q2p+H/Bc869Y+7D6qF/+evgd820mNXCqWcAAAAAAACPOE49AwAAAAAAwANIFAEAAAAAAEASiSIAAAAAAADcQ6IIAAAAAAAAkkgUAQAAAAAAQNJTTz2lA5J04MABra+vZx0PAAAAAAAAWmxzc1Mvv/yyvv76ax148cUXdeLECX3++edZxwUAAAAAAIAWu3PnjiTpueee04Fnn31WP/zwg7799tuMwwIAAAAAAECrff/99/rpp58kSf8PVSI5o0Hae/sAAAAASUVORK5CYII=;" parent="1" vertex="1">
          <mxGeometry x="80" y="22.08" width="664" height="30.86" as="geometry" />
        </mxCell>
        <mxCell id="FA6Or-pUZT9W_Ic2raqq-2" value="" style="verticalLabelPosition=bottom;shadow=0;dashed=0;align=center;html=1;verticalAlign=top;strokeWidth=1;shape=mxgraph.mockup.navigation.scrollBar;strokeColor=#262928;barPos=100;fillColor2=#395B64;strokeColor2=none;direction=north;fillColor=#808A86;" vertex="1" parent="1">
          <mxGeometry x="380" y="289" width="11" height="141" as="geometry" />
        </mxCell>
      </root>
    </mxGraphModel>
  </diagram>
</mxfile>
